<?xml version="1.0" standalone="no"?>
<!DOCTYPE svg PUBLIC "-//W3C//DTD SVG 20010904//EN"
 "http://www.w3.org/TR/2001/REC-SVG-20010904/DTD/svg10.dtd">
<svg version="1.0" xmlns="http://www.w3.org/2000/svg"
 width="512.000000pt" height="512.000000pt" viewBox="0 0 512.000000 512.000000"
 preserveAspectRatio="xMidYMid meet">

<g transform="translate(0.000000,512.000000) scale(0.100000,-0.100000)"
fill="#000000" stroke="none">
<path d="M1837 3508 c-43 -4 -122 -23 -175 -41 l-97 -32 53 -3 53 -3 -36 -50
c-20 -27 -31 -49 -25 -49 7 0 40 23 75 50 60 48 66 50 125 50 l61 0 -28 -39
c-23 -33 -36 -41 -73 -46 -106 -16 -260 -80 -370 -155 -123 -83 -241 -212
-314 -344 -31 -56 -118 -283 -157 -410 l-9 -30 33 32 c30 29 39 32 96 32 l62
0 -76 -90 c-42 -49 -71 -90 -65 -90 6 0 58 41 115 90 l103 90 62 0 61 0 -76
-90 c-42 -49 -71 -90 -65 -90 6 0 58 41 115 90 123 107 155 117 155 48 0 -34
-7 -50 -41 -90 -42 -50 -32 -69 12 -22 l24 26 5 -84 c6 -94 21 -123 81 -157
37 -21 45 -21 664 -19 l628 3 21 28 21 28 -24 62 c-39 103 -40 97 35 161 74
63 72 63 99 -13 10 -28 10 -42 2 -50 -8 -8 -7 -11 5 -11 10 0 24 -21 39 -58
32 -80 46 -99 94 -127 l42 -25 329 0 329 0 -43 21 c-25 13 -51 36 -65 59 -12
21 -94 227 -182 459 l-160 421 -32 0 c-29 0 -34 5 -61 65 -37 79 -109 157
-181 198 l-54 31 24 19 c13 11 38 30 54 43 30 24 30 25 10 40 -40 31 -98 56
-164 70 -52 11 -169 13 -551 13 -267 -1 -520 -6 -563 -11z m211 -110 c-25 -32
-28 -33 -104 -35 l-79 -3 40 35 c37 32 45 35 104 35 l64 0 -25 -32z m200 0
c-25 -32 -28 -33 -104 -35 l-79 -3 40 35 c37 32 45 35 104 35 l64 0 -25 -32z
m200 0 c-25 -32 -28 -33 -104 -35 l-79 -3 40 35 c37 32 45 35 104 35 l64 0
-25 -32z m200 0 c-25 -32 -28 -33 -104 -35 l-79 -3 40 35 c37 32 45 35 104 35
l64 0 -25 -32z m200 0 c-25 -32 -28 -33 -104 -35 l-79 -3 40 35 c37 32 45 35
104 35 l64 0 -25 -32z m191 -13 c-23 -32 -38 -44 -48 -40 -9 4 -40 9 -70 12
l-55 6 40 33 c35 30 45 34 102 34 l63 0 -32 -45z m-185 -982 c-31 -38 -60 -69
-64 -71 -7 -3 -40 74 -40 93 0 4 7 17 17 27 12 14 31 18 80 18 l64 0 -57 -67z"/>
<path d="M1476 3390 c-58 -34 -87 -60 -67 -60 8 0 35 17 60 37 81 64 82 67 7
23z"/>
<path d="M4665 1751 c-106 -26 -185 -122 -185 -226 l0 -45 -2075 0 -2075 0 0
-210 c0 -235 7 -267 59 -295 17 -8 31 -14 31 -13 0 2 -7 28 -15 58 -8 30 -15
60 -15 66 0 7 25 30 55 53 50 38 59 41 115 41 l61 0 -31 -45 c-17 -25 -26 -45
-20 -45 6 0 38 20 70 45 55 42 62 45 120 45 l61 0 -31 -45 c-17 -25 -26 -45
-20 -45 6 0 38 20 70 45 55 42 62 45 120 45 l61 0 -31 -45 c-17 -25 -26 -45
-20 -45 6 0 38 20 70 45 74 57 110 62 58 8 -52 -55 -96 -129 -118 -202 -25
-80 -29 -301 -6 -301 7 0 26 -26 42 -57 15 -33 54 -85 88 -119 146 -146 355
-182 544 -94 80 37 178 133 216 213 27 55 30 57 68 57 l40 0 -23 19 c-22 18
-25 29 -30 138 -7 129 -26 193 -78 272 l-30 44 44 34 c39 29 51 33 105 33 l61
0 -31 -45 c-17 -25 -26 -45 -20 -45 6 0 38 20 70 45 55 42 62 45 120 45 l61 0
-31 -45 c-17 -25 -26 -45 -20 -45 6 0 38 20 70 45 55 42 62 45 120 45 l61 0
-31 -45 c-17 -25 -26 -45 -20 -45 6 0 38 20 70 45 55 42 62 45 120 45 l61 0
-31 -45 c-17 -25 -26 -45 -20 -45 6 0 38 20 70 45 55 42 62 45 120 45 l61 0
-31 -45 c-17 -25 -26 -45 -20 -45 6 0 38 20 70 45 55 42 62 45 120 45 l61 0
-31 -45 c-17 -25 -26 -45 -20 -45 6 0 38 20 70 45 55 42 62 45 120 45 l61 0
-31 -45 c-17 -25 -26 -45 -20 -45 6 0 38 20 70 45 55 42 62 45 120 45 l61 0
-31 -45 c-17 -25 -26 -45 -20 -45 6 0 38 20 70 45 32 25 68 45 79 45 17 0 14
-7 -23 -46 -89 -92 -136 -220 -136 -371 0 -76 -2 -83 -26 -102 l-27 -21 44 -1
c44 0 44 0 72 -60 65 -137 215 -238 379 -255 183 -18 384 92 463 254 30 61 30
61 74 61 l44 1 -25 20 c-23 18 -26 27 -31 127 -6 123 -29 202 -81 278 l-33 50
43 32 c38 29 50 33 104 33 l61 0 -31 -45 c-17 -25 -26 -45 -20 -45 6 0 38 20
70 45 55 42 62 45 120 45 l61 0 -31 -45 c-17 -25 -26 -45 -20 -45 6 0 38 20
70 45 34 26 69 45 84 45 18 0 27 6 31 23 35 154 35 157 -11 157 -43 0 -101 31
-128 67 -28 37 -33 120 -11 167 25 53 68 79 137 84 58 4 58 4 58 37 0 28 -4
33 -31 39 -38 7 -64 6 -104 -3z m-4261 -597 c-13 -19 -19 -22 -25 -12 -16 24
-9 38 16 38 25 0 25 0 9 -26z m1404 6 c-7 -11 -16 -20 -19 -20 -3 0 -14 9 -24
20 -18 20 -17 20 19 20 34 0 35 -1 24 -20z m2400 0 c-7 -11 -16 -20 -19 -20
-3 0 -14 9 -24 20 -18 20 -17 20 19 20 34 0 35 -1 24 -20z m-2705 -214 c104
-43 129 -180 46 -258 -67 -64 -151 -64 -218 0 -128 121 9 326 172 258z m2411
-6 c63 -31 81 -63 81 -142 0 -60 -3 -70 -30 -99 -57 -60 -120 -73 -191 -38
-115 55 -118 220 -6 279 48 25 96 25 146 0z"/>
<path d="M322 1540 c0 -14 2 -19 5 -12 2 6 2 18 0 25 -3 6 -5 1 -5 -13z"/>
</g>
</svg>
